<?xml version="1.0" encoding="UTF-8"?>
<!DOCTYPE svg PUBLIC "-//W3C//DTD SVG 1.1//EN" "http://www.w3.org/Graphics/SVG/1.1/DTD/svg11.dtd">
<svg xmlns="http://www.w3.org/2000/svg" xmlns:xlink="http://www.w3.org/1999/xlink" version="1.1" width="741px" height="302px" viewBox="-0.5 -0.5 741 302" style="background-color: rgb(255, 255, 255);"><defs><clipPath id="mx-clip-0-30-40-30-0"><rect x="0" y="30" width="40" height="30"/></clipPath><clipPath id="mx-clip-46-30-134-30-0"><rect x="46" y="30" width="134" height="30"/></clipPath><clipPath id="mx-clip-186-30-134-30-0"><rect x="186" y="30" width="134" height="30"/></clipPath><clipPath id="mx-clip-46-60-134-30-0"><rect x="46" y="60" width="134" height="30"/></clipPath><clipPath id="mx-clip-186-60-134-30-0"><rect x="186" y="60" width="134" height="30"/></clipPath><clipPath id="mx-clip-46-90-134-30-0"><rect x="46" y="90" width="134" height="30"/></clipPath><clipPath id="mx-clip-186-90-134-30-0"><rect x="186" y="90" width="134" height="30"/></clipPath><clipPath id="mx-clip-46-120-134-30-0"><rect x="46" y="120" width="134" height="30"/></clipPath><clipPath id="mx-clip-186-120-134-30-0"><rect x="186" y="120" width="134" height="30"/></clipPath><clipPath id="mx-clip-46-150-134-30-0"><rect x="46" y="150" width="134" height="30"/></clipPath><clipPath id="mx-clip-186-150-134-30-0"><rect x="186" y="150" width="134" height="30"/></clipPath><clipPath id="mx-clip-46-180-134-30-0"><rect x="46" y="180" width="134" height="30"/></clipPath><clipPath id="mx-clip-186-180-134-30-0"><rect x="186" y="180" width="134" height="30"/></clipPath><clipPath id="mx-clip-46-210-134-30-0"><rect x="46" y="210" width="134" height="30"/></clipPath><clipPath id="mx-clip-186-210-134-30-0"><rect x="186" y="210" width="134" height="30"/></clipPath><clipPath id="mx-clip-46-240-134-30-0"><rect x="46" y="240" width="134" height="30"/></clipPath><clipPath id="mx-clip-186-240-134-30-0"><rect x="186" y="240" width="134" height="30"/></clipPath><clipPath id="mx-clip-400-30-40-30-0"><rect x="400" y="30" width="40" height="30"/></clipPath><clipPath id="mx-clip-446-30-134-30-0"><rect x="446" y="30" width="134" height="30"/></clipPath><clipPath id="mx-clip-586-30-154-30-0"><rect x="586" y="30" width="154" height="30"/></clipPath><clipPath id="mx-clip-446-60-134-30-0"><rect x="446" y="60" width="134" height="30"/></clipPath><clipPath id="mx-clip-586-60-154-30-0"><rect x="586" y="60" width="154" height="30"/></clipPath><clipPath id="mx-clip-400-90-40-30-0"><rect x="400" y="90" width="40" height="30"/></clipPath><clipPath id="mx-clip-446-90-134-30-0"><rect x="446" y="90" width="134" height="30"/></clipPath><clipPath id="mx-clip-586-90-154-30-0"><rect x="586" y="90" width="154" height="30"/></clipPath><clipPath id="mx-clip-446-120-134-30-0"><rect x="446" y="120" width="134" height="30"/></clipPath><clipPath id="mx-clip-586-120-154-30-0"><rect x="586" y="120" width="154" height="30"/></clipPath><clipPath id="mx-clip-446-150-134-30-0"><rect x="446" y="150" width="134" height="30"/></clipPath><clipPath id="mx-clip-586-150-154-30-0"><rect x="586" y="150" width="154" height="30"/></clipPath><clipPath id="mx-clip-446-180-134-30-0"><rect x="446" y="180" width="134" height="30"/></clipPath><clipPath id="mx-clip-586-180-154-30-0"><rect x="586" y="180" width="154" height="30"/></clipPath><clipPath id="mx-clip-446-210-134-30-0"><rect x="446" y="210" width="134" height="30"/></clipPath><clipPath id="mx-clip-586-210-154-30-0"><rect x="586" y="210" width="154" height="30"/></clipPath><clipPath id="mx-clip-446-240-134-30-0"><rect x="446" y="240" width="134" height="30"/></clipPath><clipPath id="mx-clip-586-240-154-30-0"><rect x="586" y="240" width="154" height="30"/></clipPath><clipPath id="mx-clip-400-270-40-30-0"><rect x="400" y="270" width="40" height="30"/></clipPath><clipPath id="mx-clip-446-270-134-30-0"><rect x="446" y="270" width="134" height="30"/></clipPath><clipPath id="mx-clip-586-270-154-30-0"><rect x="586" y="270" width="154" height="30"/></clipPath><style type="text/css">@import url(https://fonts.googleapis.com/css?family=Architects+Daughter);&#xa;</style></defs><g><path d="M 0 30 L 0 0 L 320 0 L 320 30" fill="rgb(255, 255, 255)" stroke="rgb(0, 0, 0)" stroke-miterlimit="10" pointer-events="all"/><path d="M 0 30 L 0 270 L 320 270 L 320 30" fill="none" stroke="rgb(0, 0, 0)" stroke-miterlimit="10" pointer-events="none"/><path d="M 0 30 L 320 30" fill="none" stroke="rgb(0, 0, 0)" stroke-miterlimit="10" pointer-events="none"/><path d="M 40 30 L 40 60 L 40 90 L 40 120 L 40 150 L 40 180 L 40 210 L 40 240 L 40 270" fill="none" stroke="rgb(0, 0, 0)" stroke-miterlimit="10" pointer-events="none"/><path d="M 180 30 L 180 60 L 180 90 L 180 120 L 180 150 L 180 180 L 180 210 L 180 240 L 180 270" fill="none" stroke="rgb(0, 0, 0)" stroke-miterlimit="10" pointer-events="none"/><g fill="rgb(0, 0, 0)" font-family="Helvetica" font-weight="bold" pointer-events="none" text-anchor="middle" font-size="12px"><text x="159.5" y="19.5">Properties</text></g><path d="M 0 30 M 320 30 M 320 60 L 0 60" fill="none" stroke="rgb(0, 0, 0)" stroke-linecap="square" stroke-miterlimit="10" pointer-events="none"/><path d="M 0 30 M 40 30 M 40 60 M 0 60" fill="none" stroke="rgb(0, 0, 0)" stroke-linecap="square" stroke-miterlimit="10" pointer-events="none"/><g fill="rgb(0, 0, 0)" font-family="Helvetica" font-weight="bold" pointer-events="none" clip-path="url(#mx-clip-0-30-40-30-0)" text-anchor="middle" font-size="12px"><text x="19.5" y="49.5">Key</text></g><path d="M 40 30 M 180 30 M 180 60 M 40 60" fill="none" stroke="rgb(0, 0, 0)" stroke-linecap="square" stroke-miterlimit="10" pointer-events="none"/><g fill="rgb(0, 0, 0)" font-family="Helvetica" font-weight="bold" text-decoration="underline" pointer-events="none" clip-path="url(#mx-clip-46-30-134-30-0)" font-size="12px"><text x="47.5" y="49.5">Name</text></g><path d="M 180 30 M 320 30 M 320 60 M 180 60" fill="none" stroke="rgb(0, 0, 0)" stroke-linecap="square" stroke-miterlimit="10" pointer-events="none"/><g fill="rgb(0, 0, 0)" font-family="Helvetica" font-weight="bold" text-decoration="underline" pointer-events="none" clip-path="url(#mx-clip-186-30-134-30-0)" font-size="12px"><text x="187.5" y="49.5">Type</text></g><path d="M 0 60 M 40 60 M 40 90 M 0 90" fill="none" stroke="rgb(0, 0, 0)" stroke-linecap="square" stroke-miterlimit="10" pointer-events="none"/><path d="M 40 60 M 180 60 M 180 90 M 40 90" fill="none" stroke="rgb(0, 0, 0)" stroke-linecap="square" stroke-miterlimit="10" pointer-events="none"/><g fill="rgb(0, 0, 0)" font-family="Helvetica" pointer-events="none" clip-path="url(#mx-clip-46-60-134-30-0)" font-size="12px"><text x="47.5" y="79.5">Name</text></g><path d="M 180 60 M 320 60 M 320 90 M 180 90" fill="none" stroke="rgb(0, 0, 0)" stroke-linecap="square" stroke-miterlimit="10" pointer-events="none"/><g fill="rgb(0, 0, 0)" font-family="Helvetica" pointer-events="none" clip-path="url(#mx-clip-186-60-134-30-0)" font-size="12px"><text x="187.5" y="79.5">Char</text></g><path d="M 0 90 M 40 90 M 40 120 M 0 120" fill="none" stroke="rgb(0, 0, 0)" stroke-linecap="square" stroke-miterlimit="10" pointer-events="none"/><path d="M 40 90 M 180 90 M 180 120 M 40 120" fill="none" stroke="rgb(0, 0, 0)" stroke-linecap="square" stroke-miterlimit="10" pointer-events="none"/><g fill="rgb(0, 0, 0)" font-family="Helvetica" pointer-events="none" clip-path="url(#mx-clip-46-90-134-30-0)" font-size="12px"><text x="47.5" y="109.5">Price</text></g><path d="M 180 90 M 320 90 M 320 120 M 180 120" fill="none" stroke="rgb(0, 0, 0)" stroke-linecap="square" stroke-miterlimit="10" pointer-events="none"/><g fill="rgb(0, 0, 0)" font-family="Helvetica" pointer-events="none" clip-path="url(#mx-clip-186-90-134-30-0)" font-size="12px"><text x="187.5" y="109.5">Money</text></g><path d="M 0 120 M 40 120 M 40 150 M 0 150" fill="none" stroke="rgb(0, 0, 0)" stroke-linecap="square" stroke-miterlimit="10" pointer-events="none"/><path d="M 40 120 M 180 120 M 180 150 M 40 150" fill="none" stroke="rgb(0, 0, 0)" stroke-linecap="square" stroke-miterlimit="10" pointer-events="none"/><g fill="rgb(0, 0, 0)" font-family="Helvetica" pointer-events="none" clip-path="url(#mx-clip-46-120-134-30-0)" font-size="12px"><text x="47.5" y="139.5">Description</text></g><path d="M 180 120 M 320 120 M 320 150 M 180 150" fill="none" stroke="rgb(0, 0, 0)" stroke-linecap="square" stroke-miterlimit="10" pointer-events="none"/><g fill="rgb(0, 0, 0)" font-family="Helvetica" pointer-events="none" clip-path="url(#mx-clip-186-120-134-30-0)" font-size="12px"><text x="187.5" y="139.5">Text</text></g><path d="M 0 150 M 40 150 M 40 180 M 0 180" fill="none" stroke="rgb(0, 0, 0)" stroke-linecap="square" stroke-miterlimit="10" pointer-events="none"/><path d="M 40 150 M 180 150 M 180 180 M 40 180" fill="none" stroke="rgb(0, 0, 0)" stroke-linecap="square" stroke-miterlimit="10" pointer-events="none"/><g fill="rgb(0, 0, 0)" font-family="Helvetica" pointer-events="none" clip-path="url(#mx-clip-46-150-134-30-0)" font-size="12px"><text x="47.5" y="169.5">Address</text></g><path d="M 180 150 M 320 150 M 320 180 M 180 180" fill="none" stroke="rgb(0, 0, 0)" stroke-linecap="square" stroke-miterlimit="10" pointer-events="none"/><g fill="rgb(0, 0, 0)" font-family="Helvetica" pointer-events="none" clip-path="url(#mx-clip-186-150-134-30-0)" font-size="12px"><text x="187.5" y="169.5">Char[200]</text></g><path d="M 0 180 M 40 180 M 40 210 M 0 210" fill="none" stroke="rgb(0, 0, 0)" stroke-linecap="square" stroke-miterlimit="10" pointer-events="none"/><path d="M 40 180 M 180 180 M 180 210 M 40 210" fill="none" stroke="rgb(0, 0, 0)" stroke-linecap="square" stroke-miterlimit="10" pointer-events="none"/><g fill="rgb(0, 0, 0)" font-family="Helvetica" pointer-events="none" clip-path="url(#mx-clip-46-180-134-30-0)" font-size="12px"><text x="47.5" y="199.5">Date Added</text></g><path d="M 180 180 M 320 180 M 320 210 M 180 210" fill="none" stroke="rgb(0, 0, 0)" stroke-linecap="square" stroke-miterlimit="10" pointer-events="none"/><g fill="rgb(0, 0, 0)" font-family="Helvetica" pointer-events="none" clip-path="url(#mx-clip-186-180-134-30-0)" font-size="12px"><text x="187.5" y="199.5">DateTime</text></g><path d="M 0 210 M 40 210 M 40 240 M 0 240" fill="none" stroke="rgb(0, 0, 0)" stroke-linecap="square" stroke-miterlimit="10" pointer-events="none"/><path d="M 40 210 M 180 210 M 180 240 M 40 240" fill="none" stroke="rgb(0, 0, 0)" stroke-linecap="square" stroke-miterlimit="10" pointer-events="none"/><g fill="rgb(0, 0, 0)" font-family="Helvetica" pointer-events="none" clip-path="url(#mx-clip-46-210-134-30-0)" font-size="12px"><text x="47.5" y="229.5">Main Image</text></g><path d="M 180 210 M 320 210 M 320 240 M 180 240" fill="none" stroke="rgb(0, 0, 0)" stroke-linecap="square" stroke-miterlimit="10" pointer-events="none"/><g fill="rgb(0, 0, 0)" font-family="Helvetica" pointer-events="none" clip-path="url(#mx-clip-186-210-134-30-0)" font-size="12px"><text x="187.5" y="229.5">CloudinaryField</text></g><path d="M 0 240 M 40 240 M 40 270 M 0 270" fill="none" stroke="rgb(0, 0, 0)" stroke-linecap="square" stroke-miterlimit="10" pointer-events="none"/><path d="M 40 240 M 180 240 M 180 270 M 40 270" fill="none" stroke="rgb(0, 0, 0)" stroke-linecap="square" stroke-miterlimit="10" pointer-events="none"/><g fill="rgb(0, 0, 0)" font-family="Helvetica" pointer-events="none" clip-path="url(#mx-clip-46-240-134-30-0)" font-size="12px"><text x="47.5" y="259.5">Let Agreed</text></g><path d="M 180 240 M 320 240 M 320 270 M 180 270" fill="none" stroke="rgb(0, 0, 0)" stroke-linecap="square" stroke-miterlimit="10" pointer-events="none"/><g fill="rgb(0, 0, 0)" font-family="Helvetica" pointer-events="none" clip-path="url(#mx-clip-186-240-134-30-0)" font-size="12px"><text x="187.5" y="259.5">Bool</text></g><path d="M 400 30 L 400 0 L 740 0 L 740 30" fill="rgb(255, 255, 255)" stroke="rgb(0, 0, 0)" stroke-miterlimit="10" pointer-events="none"/><path d="M 400 30 L 400 300 L 740 300 L 740 30" fill="none" stroke="rgb(0, 0, 0)" stroke-miterlimit="10" pointer-events="none"/><path d="M 400 30 L 740 30" fill="none" stroke="rgb(0, 0, 0)" stroke-miterlimit="10" pointer-events="none"/><path d="M 440 30 L 440 60 L 440 90 L 440 120 L 440 150 L 440 180 L 440 210 L 440 240 L 440 270 L 440 300" fill="none" stroke="rgb(0, 0, 0)" stroke-miterlimit="10" pointer-events="none"/><path d="M 580 30 L 580 60 L 580 90 L 580 120 L 580 150 L 580 180 L 580 210 L 580 240 L 580 270 L 580 300" fill="none" stroke="rgb(0, 0, 0)" stroke-miterlimit="10" pointer-events="none"/><g fill="rgb(0, 0, 0)" font-family="Helvetica" font-weight="bold" pointer-events="none" text-anchor="middle" font-size="12px"><text x="569.5" y="19.5">ViewingRequests</text></g><path d="M 400 30 M 740 30 M 740 60 L 400 60" fill="none" stroke="rgb(0, 0, 0)" stroke-linecap="square" stroke-miterlimit="10" pointer-events="none"/><path d="M 400 30 M 440 30 M 440 60 M 400 60" fill="none" stroke="rgb(0, 0, 0)" stroke-linecap="square" stroke-miterlimit="10" pointer-events="none"/><g fill="rgb(0, 0, 0)" font-family="Helvetica" font-weight="bold" pointer-events="none" clip-path="url(#mx-clip-400-30-40-30-0)" text-anchor="middle" font-size="12px"><text x="419.5" y="49.5">Key</text></g><path d="M 440 30 M 580 30 M 580 60 M 440 60" fill="none" stroke="rgb(0, 0, 0)" stroke-linecap="square" stroke-miterlimit="10" pointer-events="none"/><g fill="rgb(0, 0, 0)" font-family="Helvetica" font-weight="bold" text-decoration="underline" pointer-events="none" clip-path="url(#mx-clip-446-30-134-30-0)" font-size="12px"><text x="447.5" y="49.5">Name</text></g><path d="M 580 30 M 740 30 M 740 60 M 580 60" fill="none" stroke="rgb(0, 0, 0)" stroke-linecap="square" stroke-miterlimit="10" pointer-events="none"/><g fill="rgb(0, 0, 0)" font-family="Helvetica" font-weight="bold" text-decoration="underline" pointer-events="none" clip-path="url(#mx-clip-586-30-154-30-0)" font-size="12px"><text x="587.5" y="49.5">Type</text></g><path d="M 400 60 M 440 60 M 440 90 M 400 90" fill="none" stroke="rgb(0, 0, 0)" stroke-linecap="square" stroke-miterlimit="10" pointer-events="none"/><path d="M 440 60 M 580 60 M 580 90 M 440 90" fill="none" stroke="rgb(0, 0, 0)" stroke-linecap="square" stroke-miterlimit="10" pointer-events="none"/><g fill="rgb(0, 0, 0)" font-family="Helvetica" pointer-events="none" clip-path="url(#mx-clip-446-60-134-30-0)" font-size="12px"><text x="447.5" y="79.5">Full Name</text></g><path d="M 580 60 M 740 60 M 740 90 M 580 90" fill="none" stroke="rgb(0, 0, 0)" stroke-linecap="square" stroke-miterlimit="10" pointer-events="none"/><g fill="rgb(0, 0, 0)" font-family="Helvetica" pointer-events="none" clip-path="url(#mx-clip-586-60-154-30-0)" font-size="12px"><text x="587.5" y="79.5">Char[100]</text></g><path d="M 400 90 M 440 90 M 440 120 M 400 120" fill="none" stroke="rgb(0, 0, 0)" stroke-linecap="square" stroke-miterlimit="10" pointer-events="none"/><g fill="rgb(0, 0, 0)" font-family="Helvetica" pointer-events="none" clip-path="url(#mx-clip-400-90-40-30-0)" text-anchor="middle" font-size="12px"><text x="419.5" y="109.5">FK</text></g><path d="M 440 90 M 580 90 M 580 120 M 440 120" fill="none" stroke="rgb(0, 0, 0)" stroke-linecap="square" stroke-miterlimit="10" pointer-events="none"/><g fill="rgb(0, 0, 0)" font-family="Helvetica" pointer-events="none" clip-path="url(#mx-clip-446-90-134-30-0)" font-size="12px"><text x="447.5" y="109.5">Property</text></g><path d="M 580 90 M 740 90 M 740 120 M 580 120" fill="none" stroke="rgb(0, 0, 0)" stroke-linecap="square" stroke-miterlimit="10" pointer-events="none"/><g fill="rgb(0, 0, 0)" font-family="Helvetica" pointer-events="none" clip-path="url(#mx-clip-586-90-154-30-0)" font-size="12px"><text x="587.5" y="109.5">Properties Model</text></g><path d="M 400 120 M 440 120 M 440 150 M 400 150" fill="none" stroke="rgb(0, 0, 0)" stroke-linecap="square" stroke-miterlimit="10" pointer-events="none"/><path d="M 440 120 M 580 120 M 580 150 M 440 150" fill="none" stroke="rgb(0, 0, 0)" stroke-linecap="square" stroke-miterlimit="10" pointer-events="none"/><g fill="rgb(0, 0, 0)" font-family="Helvetica" pointer-events="none" clip-path="url(#mx-clip-446-120-134-30-0)" font-size="12px"><text x="447.5" y="139.5">Phone no</text></g><path d="M 580 120 M 740 120 M 740 150 M 580 150" fill="none" stroke="rgb(0, 0, 0)" stroke-linecap="square" stroke-miterlimit="10" pointer-events="none"/><g fill="rgb(0, 0, 0)" font-family="Helvetica" pointer-events="none" clip-path="url(#mx-clip-586-120-154-30-0)" font-size="12px"><text x="587.5" y="139.5">Char[14]</text></g><path d="M 400 150 M 440 150 M 440 180 M 400 180" fill="none" stroke="rgb(0, 0, 0)" stroke-linecap="square" stroke-miterlimit="10" pointer-events="none"/><path d="M 440 150 M 580 150 M 580 180 M 440 180" fill="none" stroke="rgb(0, 0, 0)" stroke-linecap="square" stroke-miterlimit="10" pointer-events="none"/><g fill="rgb(0, 0, 0)" font-family="Helvetica" pointer-events="none" clip-path="url(#mx-clip-446-150-134-30-0)" font-size="12px"><text x="447.5" y="169.5">Email</text></g><path d="M 580 150 M 740 150 M 740 180 M 580 180" fill="none" stroke="rgb(0, 0, 0)" stroke-linecap="square" stroke-miterlimit="10" pointer-events="none"/><g fill="rgb(0, 0, 0)" font-family="Helvetica" pointer-events="none" clip-path="url(#mx-clip-586-150-154-30-0)" font-size="12px"><text x="587.5" y="169.5">Email</text></g><path d="M 400 180 M 440 180 M 440 210 M 400 210" fill="none" stroke="rgb(0, 0, 0)" stroke-linecap="square" stroke-miterlimit="10" pointer-events="none"/><path d="M 440 180 M 580 180 M 580 210 M 440 210" fill="none" stroke="rgb(0, 0, 0)" stroke-linecap="square" stroke-miterlimit="10" pointer-events="none"/><g fill="rgb(0, 0, 0)" font-family="Helvetica" pointer-events="none" clip-path="url(#mx-clip-446-180-134-30-0)" font-size="12px"><text x="447.5" y="199.5">Request Date</text></g><path d="M 580 180 M 740 180 M 740 210 M 580 210" fill="none" stroke="rgb(0, 0, 0)" stroke-linecap="square" stroke-miterlimit="10" pointer-events="none"/><g fill="rgb(0, 0, 0)" font-family="Helvetica" pointer-events="none" clip-path="url(#mx-clip-586-180-154-30-0)" font-size="12px"><text x="587.5" y="199.5">DateTime</text></g><path d="M 400 210 M 440 210 M 440 240 M 400 240" fill="none" stroke="rgb(0, 0, 0)" stroke-linecap="square" stroke-miterlimit="10" pointer-events="none"/><path d="M 440 210 M 580 210 M 580 240 M 440 240" fill="none" stroke="rgb(0, 0, 0)" stroke-linecap="square" stroke-miterlimit="10" pointer-events="none"/><g fill="rgb(0, 0, 0)" font-family="Helvetica" pointer-events="none" clip-path="url(#mx-clip-446-210-134-30-0)" font-size="12px"><text x="447.5" y="229.5">Aranged Date</text></g><path d="M 580 210 M 740 210 M 740 240 M 580 240" fill="none" stroke="rgb(0, 0, 0)" stroke-linecap="square" stroke-miterlimit="10" pointer-events="none"/><g fill="rgb(0, 0, 0)" font-family="Helvetica" pointer-events="none" clip-path="url(#mx-clip-586-210-154-30-0)" font-size="12px"><text x="587.5" y="229.5">DateTime</text></g><path d="M 400 240 M 440 240 M 440 270 M 400 270" fill="none" stroke="rgb(0, 0, 0)" stroke-linecap="square" stroke-miterlimit="10" pointer-events="none"/><path d="M 440 240 M 580 240 M 580 270 M 440 270" fill="none" stroke="rgb(0, 0, 0)" stroke-linecap="square" stroke-miterlimit="10" pointer-events="none"/><g fill="rgb(0, 0, 0)" font-family="Helvetica" pointer-events="none" clip-path="url(#mx-clip-446-240-134-30-0)" font-size="12px"><text x="447.5" y="259.5">Message</text></g><path d="M 580 240 M 740 240 M 740 270 M 580 270" fill="none" stroke="rgb(0, 0, 0)" stroke-linecap="square" stroke-miterlimit="10" pointer-events="none"/><g fill="rgb(0, 0, 0)" font-family="Helvetica" pointer-events="none" clip-path="url(#mx-clip-586-240-154-30-0)" font-size="12px"><text x="587.5" y="259.5">Text</text></g><path d="M 400 270 M 440 270 M 440 300 M 400 300" fill="none" stroke="rgb(0, 0, 0)" stroke-linecap="square" stroke-miterlimit="10" pointer-events="none"/><g fill="#999999" font-family="Helvetica" pointer-events="none" clip-path="url(#mx-clip-400-270-40-30-0)" text-anchor="middle" font-size="12px"><text x="419.5" y="289.5">FK</text></g><path d="M 440 270 M 580 270 M 580 300 M 440 300" fill="none" stroke="rgb(0, 0, 0)" stroke-linecap="square" stroke-miterlimit="10" pointer-events="none"/><g fill="#999999" font-family="Helvetica" pointer-events="none" clip-path="url(#mx-clip-446-270-134-30-0)" font-size="12px"><text x="447.5" y="289.5">Associated User</text></g><path d="M 580 270 M 740 270 M 740 300 M 580 300" fill="none" stroke="rgb(0, 0, 0)" stroke-linecap="square" stroke-miterlimit="10" pointer-events="none"/><g fill="#999999" font-family="Helvetica" pointer-events="none" clip-path="url(#mx-clip-586-270-154-30-0)" font-size="12px"><text x="587.5" y="289.5">Users Model</text></g><path d="M 400 105 L 360 105 L 360 15.08 L 327.65 15.11" fill="none" stroke="rgb(0, 0, 0)" stroke-miterlimit="10" pointer-events="none"/><path d="M 322.4 15.12 L 329.39 11.61 L 327.65 15.11 L 329.4 18.61 Z" fill="rgb(0, 0, 0)" stroke="rgb(0, 0, 0)" stroke-miterlimit="10" pointer-events="none"/></g></svg>