<?xml version="1.0" encoding="UTF-8"?>
<!DOCTYPE svg PUBLIC "-//W3C//DTD SVG 1.1//EN" "http://www.w3.org/Graphics/SVG/1.1/DTD/svg11.dtd">
<svg xmlns="http://www.w3.org/2000/svg" xmlns:xlink="http://www.w3.org/1999/xlink" version="1.1" width="322px" height="272px" viewBox="-0.5 -0.5 322 272" style="background-color: rgb(255, 255, 255);"><defs><clipPath id="mx-clip-0-30-40-30-0"><rect x="0" y="30" width="40" height="30"/></clipPath><clipPath id="mx-clip-46-30-134-30-0"><rect x="46" y="30" width="134" height="30"/></clipPath><clipPath id="mx-clip-186-30-134-30-0"><rect x="186" y="30" width="134" height="30"/></clipPath><clipPath id="mx-clip-46-60-134-30-0"><rect x="46" y="60" width="134" height="30"/></clipPath><clipPath id="mx-clip-186-60-134-30-0"><rect x="186" y="60" width="134" height="30"/></clipPath><clipPath id="mx-clip-46-90-134-30-0"><rect x="46" y="90" width="134" height="30"/></clipPath><clipPath id="mx-clip-186-90-134-30-0"><rect x="186" y="90" width="134" height="30"/></clipPath><clipPath id="mx-clip-46-120-134-30-0"><rect x="46" y="120" width="134" height="30"/></clipPath><clipPath id="mx-clip-186-120-134-30-0"><rect x="186" y="120" width="134" height="30"/></clipPath><clipPath id="mx-clip-46-150-134-30-0"><rect x="46" y="150" width="134" height="30"/></clipPath><clipPath id="mx-clip-186-150-134-30-0"><rect x="186" y="150" width="134" height="30"/></clipPath><clipPath id="mx-clip-46-180-134-30-0"><rect x="46" y="180" width="134" height="30"/></clipPath><clipPath id="mx-clip-186-180-134-30-0"><rect x="186" y="180" width="134" height="30"/></clipPath><clipPath id="mx-clip-46-210-134-30-0"><rect x="46" y="210" width="134" height="30"/></clipPath><clipPath id="mx-clip-186-210-134-30-0"><rect x="186" y="210" width="134" height="30"/></clipPath><clipPath id="mx-clip-46-240-134-30-0"><rect x="46" y="240" width="134" height="30"/></clipPath><clipPath id="mx-clip-186-240-134-30-0"><rect x="186" y="240" width="134" height="30"/></clipPath><style type="text/css">@import url(https://fonts.googleapis.com/css?family=Architects+Daughter);&#xa;</style></defs><g><path d="M 0 30 L 0 0 L 320 0 L 320 30" fill="rgb(255, 255, 255)" stroke="rgb(0, 0, 0)" stroke-miterlimit="10" pointer-events="all"/><path d="M 0 30 L 0 270 L 320 270 L 320 30" fill="none" stroke="rgb(0, 0, 0)" stroke-miterlimit="10" pointer-events="none"/><path d="M 0 30 L 320 30" fill="none" stroke="rgb(0, 0, 0)" stroke-miterlimit="10" pointer-events="none"/><path d="M 40 30 L 40 60 L 40 90 L 40 120 L 40 150 L 40 180 L 40 210 L 40 240 L 40 270" fill="none" stroke="rgb(0, 0, 0)" stroke-miterlimit="10" pointer-events="none"/><path d="M 180 30 L 180 60 L 180 90 L 180 120 L 180 150 L 180 180 L 180 210 L 180 240 L 180 270" fill="none" stroke="rgb(0, 0, 0)" stroke-miterlimit="10" pointer-events="none"/><g fill="rgb(0, 0, 0)" font-family="Helvetica" font-weight="bold" pointer-events="none" text-anchor="middle" font-size="12px"><text x="159.5" y="19.5">Properties</text></g><path d="M 0 30 M 320 30 M 320 60 L 0 60" fill="none" stroke="rgb(0, 0, 0)" stroke-linecap="square" stroke-miterlimit="10" pointer-events="none"/><path d="M 0 30 M 40 30 M 40 60 M 0 60" fill="none" stroke="rgb(0, 0, 0)" stroke-linecap="square" stroke-miterlimit="10" pointer-events="none"/><g fill="rgb(0, 0, 0)" font-family="Helvetica" font-weight="bold" pointer-events="none" clip-path="url(#mx-clip-0-30-40-30-0)" text-anchor="middle" font-size="12px"><text x="19.5" y="49.5">Key</text></g><path d="M 40 30 M 180 30 M 180 60 M 40 60" fill="none" stroke="rgb(0, 0, 0)" stroke-linecap="square" stroke-miterlimit="10" pointer-events="none"/><g fill="rgb(0, 0, 0)" font-family="Helvetica" font-weight="bold" text-decoration="underline" pointer-events="none" clip-path="url(#mx-clip-46-30-134-30-0)" font-size="12px"><text x="47.5" y="49.5">Name</text></g><path d="M 180 30 M 320 30 M 320 60 M 180 60" fill="none" stroke="rgb(0, 0, 0)" stroke-linecap="square" stroke-miterlimit="10" pointer-events="none"/><g fill="rgb(0, 0, 0)" font-family="Helvetica" font-weight="bold" text-decoration="underline" pointer-events="none" clip-path="url(#mx-clip-186-30-134-30-0)" font-size="12px"><text x="187.5" y="49.5">Type</text></g><path d="M 0 60 M 40 60 M 40 90 M 0 90" fill="none" stroke="rgb(0, 0, 0)" stroke-linecap="square" stroke-miterlimit="10" pointer-events="none"/><path d="M 40 60 M 180 60 M 180 90 M 40 90" fill="none" stroke="rgb(0, 0, 0)" stroke-linecap="square" stroke-miterlimit="10" pointer-events="none"/><g fill="rgb(0, 0, 0)" font-family="Helvetica" pointer-events="none" clip-path="url(#mx-clip-46-60-134-30-0)" font-size="12px"><text x="47.5" y="79.5">Name</text></g><path d="M 180 60 M 320 60 M 320 90 M 180 90" fill="none" stroke="rgb(0, 0, 0)" stroke-linecap="square" stroke-miterlimit="10" pointer-events="none"/><g fill="rgb(0, 0, 0)" font-family="Helvetica" pointer-events="none" clip-path="url(#mx-clip-186-60-134-30-0)" font-size="12px"><text x="187.5" y="79.5">Char</text></g><path d="M 0 90 M 40 90 M 40 120 M 0 120" fill="none" stroke="rgb(0, 0, 0)" stroke-linecap="square" stroke-miterlimit="10" pointer-events="none"/><path d="M 40 90 M 180 90 M 180 120 M 40 120" fill="none" stroke="rgb(0, 0, 0)" stroke-linecap="square" stroke-miterlimit="10" pointer-events="none"/><g fill="rgb(0, 0, 0)" font-family="Helvetica" pointer-events="none" clip-path="url(#mx-clip-46-90-134-30-0)" font-size="12px"><text x="47.5" y="109.5">Price</text></g><path d="M 180 90 M 320 90 M 320 120 M 180 120" fill="none" stroke="rgb(0, 0, 0)" stroke-linecap="square" stroke-miterlimit="10" pointer-events="none"/><g fill="rgb(0, 0, 0)" font-family="Helvetica" pointer-events="none" clip-path="url(#mx-clip-186-90-134-30-0)" font-size="12px"><text x="187.5" y="109.5">Money</text></g><path d="M 0 120 M 40 120 M 40 150 M 0 150" fill="none" stroke="rgb(0, 0, 0)" stroke-linecap="square" stroke-miterlimit="10" pointer-events="none"/><path d="M 40 120 M 180 120 M 180 150 M 40 150" fill="none" stroke="rgb(0, 0, 0)" stroke-linecap="square" stroke-miterlimit="10" pointer-events="none"/><g fill="rgb(0, 0, 0)" font-family="Helvetica" pointer-events="none" clip-path="url(#mx-clip-46-120-134-30-0)" font-size="12px"><text x="47.5" y="139.5">Description</text></g><path d="M 180 120 M 320 120 M 320 150 M 180 150" fill="none" stroke="rgb(0, 0, 0)" stroke-linecap="square" stroke-miterlimit="10" pointer-events="none"/><g fill="rgb(0, 0, 0)" font-family="Helvetica" pointer-events="none" clip-path="url(#mx-clip-186-120-134-30-0)" font-size="12px"><text x="187.5" y="139.5">Text</text></g><path d="M 0 150 M 40 150 M 40 180 M 0 180" fill="none" stroke="rgb(0, 0, 0)" stroke-linecap="square" stroke-miterlimit="10" pointer-events="none"/><path d="M 40 150 M 180 150 M 180 180 M 40 180" fill="none" stroke="rgb(0, 0, 0)" stroke-linecap="square" stroke-miterlimit="10" pointer-events="none"/><g fill="rgb(0, 0, 0)" font-family="Helvetica" pointer-events="none" clip-path="url(#mx-clip-46-150-134-30-0)" font-size="12px"><text x="47.5" y="169.5">Address</text></g><path d="M 180 150 M 320 150 M 320 180 M 180 180" fill="none" stroke="rgb(0, 0, 0)" stroke-linecap="square" stroke-miterlimit="10" pointer-events="none"/><g fill="rgb(0, 0, 0)" font-family="Helvetica" pointer-events="none" clip-path="url(#mx-clip-186-150-134-30-0)" font-size="12px"><text x="187.5" y="169.5">Char[200]</text></g><path d="M 0 180 M 40 180 M 40 210 M 0 210" fill="none" stroke="rgb(0, 0, 0)" stroke-linecap="square" stroke-miterlimit="10" pointer-events="none"/><path d="M 40 180 M 180 180 M 180 210 M 40 210" fill="none" stroke="rgb(0, 0, 0)" stroke-linecap="square" stroke-miterlimit="10" pointer-events="none"/><g fill="rgb(0, 0, 0)" font-family="Helvetica" pointer-events="none" clip-path="url(#mx-clip-46-180-134-30-0)" font-size="12px"><text x="47.5" y="199.5">Date Added</text></g><path d="M 180 180 M 320 180 M 320 210 M 180 210" fill="none" stroke="rgb(0, 0, 0)" stroke-linecap="square" stroke-miterlimit="10" pointer-events="none"/><g fill="rgb(0, 0, 0)" font-family="Helvetica" pointer-events="none" clip-path="url(#mx-clip-186-180-134-30-0)" font-size="12px"><text x="187.5" y="199.5">DateTime</text></g><path d="M 0 210 M 40 210 M 40 240 M 0 240" fill="none" stroke="rgb(0, 0, 0)" stroke-linecap="square" stroke-miterlimit="10" pointer-events="none"/><path d="M 40 210 M 180 210 M 180 240 M 40 240" fill="none" stroke="rgb(0, 0, 0)" stroke-linecap="square" stroke-miterlimit="10" pointer-events="none"/><g fill="rgb(0, 0, 0)" font-family="Helvetica" pointer-events="none" clip-path="url(#mx-clip-46-210-134-30-0)" font-size="12px"><text x="47.5" y="229.5">Main Image</text></g><path d="M 180 210 M 320 210 M 320 240 M 180 240" fill="none" stroke="rgb(0, 0, 0)" stroke-linecap="square" stroke-miterlimit="10" pointer-events="none"/><g fill="rgb(0, 0, 0)" font-family="Helvetica" pointer-events="none" clip-path="url(#mx-clip-186-210-134-30-0)" font-size="12px"><text x="187.5" y="229.5">CloudinaryField</text></g><path d="M 0 240 M 40 240 M 40 270 M 0 270" fill="none" stroke="rgb(0, 0, 0)" stroke-linecap="square" stroke-miterlimit="10" pointer-events="none"/><path d="M 40 240 M 180 240 M 180 270 M 40 270" fill="none" stroke="rgb(0, 0, 0)" stroke-linecap="square" stroke-miterlimit="10" pointer-events="none"/><g fill="rgb(0, 0, 0)" font-family="Helvetica" pointer-events="none" clip-path="url(#mx-clip-46-240-134-30-0)" font-size="12px"><text x="47.5" y="259.5">Let Agreed</text></g><path d="M 180 240 M 320 240 M 320 270 M 180 270" fill="none" stroke="rgb(0, 0, 0)" stroke-linecap="square" stroke-miterlimit="10" pointer-events="none"/><g fill="rgb(0, 0, 0)" font-family="Helvetica" pointer-events="none" clip-path="url(#mx-clip-186-240-134-30-0)" font-size="12px"><text x="187.5" y="259.5">Bool</text></g></g></svg>