<?xml version="1.0" encoding="UTF-8"?>
<!DOCTYPE svg PUBLIC "-//W3C//DTD SVG 1.1//EN" "http://www.w3.org/Graphics/SVG/1.1/DTD/svg11.dtd">
<svg xmlns="http://www.w3.org/2000/svg" xmlns:xlink="http://www.w3.org/1999/xlink" version="1.1" width="721px" height="671px" viewBox="-0.5 -0.5 721 671" style="background-color: rgb(255, 255, 255);"><defs><clipPath id="mx-clip-0-30-40-30-0"><rect x="0" y="30" width="40" height="30"/></clipPath><clipPath id="mx-clip-46-30-134-30-0"><rect x="46" y="30" width="134" height="30"/></clipPath><clipPath id="mx-clip-186-30-134-30-0"><rect x="186" y="30" width="134" height="30"/></clipPath><clipPath id="mx-clip-46-60-134-30-0"><rect x="46" y="60" width="134" height="30"/></clipPath><clipPath id="mx-clip-186-60-134-30-0"><rect x="186" y="60" width="134" height="30"/></clipPath><clipPath id="mx-clip-46-90-134-30-0"><rect x="46" y="90" width="134" height="30"/></clipPath><clipPath id="mx-clip-186-90-134-30-0"><rect x="186" y="90" width="134" height="30"/></clipPath><clipPath id="mx-clip-46-120-134-30-0"><rect x="46" y="120" width="134" height="30"/></clipPath><clipPath id="mx-clip-186-120-134-30-0"><rect x="186" y="120" width="134" height="30"/></clipPath><clipPath id="mx-clip-46-150-134-30-0"><rect x="46" y="150" width="134" height="30"/></clipPath><clipPath id="mx-clip-186-150-134-30-0"><rect x="186" y="150" width="134" height="30"/></clipPath><clipPath id="mx-clip-46-180-134-30-0"><rect x="46" y="180" width="134" height="30"/></clipPath><clipPath id="mx-clip-186-180-134-30-0"><rect x="186" y="180" width="134" height="30"/></clipPath><clipPath id="mx-clip-46-210-134-30-0"><rect x="46" y="210" width="134" height="30"/></clipPath><clipPath id="mx-clip-186-210-134-30-0"><rect x="186" y="210" width="134" height="30"/></clipPath><clipPath id="mx-clip-46-240-134-30-0"><rect x="46" y="240" width="134" height="30"/></clipPath><clipPath id="mx-clip-186-240-134-30-0"><rect x="186" y="240" width="134" height="30"/></clipPath><clipPath id="mx-clip-400-30-40-30-0"><rect x="400" y="30" width="40" height="30"/></clipPath><clipPath id="mx-clip-446-30-134-30-0"><rect x="446" y="30" width="134" height="30"/></clipPath><clipPath id="mx-clip-586-30-134-30-0"><rect x="586" y="30" width="134" height="30"/></clipPath><clipPath id="mx-clip-400-60-40-30-0"><rect x="400" y="60" width="40" height="30"/></clipPath><clipPath id="mx-clip-446-60-134-30-0"><rect x="446" y="60" width="134" height="30"/></clipPath><clipPath id="mx-clip-586-60-134-30-0"><rect x="586" y="60" width="134" height="30"/></clipPath><clipPath id="mx-clip-446-90-134-30-0"><rect x="446" y="90" width="134" height="30"/></clipPath><clipPath id="mx-clip-586-90-134-30-0"><rect x="586" y="90" width="134" height="30"/></clipPath><clipPath id="mx-clip-446-120-134-30-0"><rect x="446" y="120" width="134" height="30"/></clipPath><clipPath id="mx-clip-586-120-134-30-0"><rect x="586" y="120" width="134" height="30"/></clipPath><clipPath id="mx-clip-446-150-134-30-0"><rect x="446" y="150" width="134" height="30"/></clipPath><clipPath id="mx-clip-586-150-134-30-0"><rect x="586" y="150" width="134" height="30"/></clipPath><clipPath id="mx-clip-400-180-40-30-0"><rect x="400" y="180" width="40" height="30"/></clipPath><clipPath id="mx-clip-446-180-134-30-0"><rect x="446" y="180" width="134" height="30"/></clipPath><clipPath id="mx-clip-586-180-134-30-0"><rect x="586" y="180" width="134" height="30"/></clipPath><clipPath id="mx-clip-400-300-40-30-0"><rect x="400" y="300" width="40" height="30"/></clipPath><clipPath id="mx-clip-446-300-134-30-0"><rect x="446" y="300" width="134" height="30"/></clipPath><clipPath id="mx-clip-586-300-134-30-0"><rect x="586" y="300" width="134" height="30"/></clipPath><clipPath id="mx-clip-400-330-40-30-0"><rect x="400" y="330" width="40" height="30"/></clipPath><clipPath id="mx-clip-446-330-134-30-0"><rect x="446" y="330" width="134" height="30"/></clipPath><clipPath id="mx-clip-586-330-134-30-0"><rect x="586" y="330" width="134" height="30"/></clipPath><clipPath id="mx-clip-446-360-134-30-0"><rect x="446" y="360" width="134" height="30"/></clipPath><clipPath id="mx-clip-586-360-134-30-0"><rect x="586" y="360" width="134" height="30"/></clipPath><clipPath id="mx-clip-400-490-40-30-0"><rect x="400" y="490" width="40" height="30"/></clipPath><clipPath id="mx-clip-446-490-134-30-0"><rect x="446" y="490" width="134" height="30"/></clipPath><clipPath id="mx-clip-586-490-134-30-0"><rect x="586" y="490" width="134" height="30"/></clipPath><clipPath id="mx-clip-446-520-134-30-0"><rect x="446" y="520" width="134" height="30"/></clipPath><clipPath id="mx-clip-446-550-134-30-0"><rect x="446" y="550" width="134" height="30"/></clipPath><clipPath id="mx-clip-446-580-134-30-0"><rect x="446" y="580" width="134" height="30"/></clipPath><clipPath id="mx-clip-446-610-134-30-0"><rect x="446" y="610" width="134" height="30"/></clipPath><clipPath id="mx-clip-446-640-134-30-0"><rect x="446" y="640" width="134" height="30"/></clipPath></defs><g><path d="M 0 30 L 0 0 L 320 0 L 320 30" fill="rgb(255, 255, 255)" stroke="rgb(0, 0, 0)" stroke-miterlimit="10" pointer-events="all"/><path d="M 0 30 L 0 270 L 320 270 L 320 30" fill="none" stroke="rgb(0, 0, 0)" stroke-miterlimit="10" pointer-events="none"/><path d="M 0 30 L 320 30" fill="none" stroke="rgb(0, 0, 0)" stroke-miterlimit="10" pointer-events="none"/><path d="M 40 30 L 40 60 L 40 90 L 40 120 L 40 150 L 40 180 L 40 210 L 40 240 L 40 270" fill="none" stroke="rgb(0, 0, 0)" stroke-miterlimit="10" pointer-events="none"/><path d="M 180 30 L 180 60 L 180 90 L 180 120 L 180 150 L 180 180 L 180 210 L 180 240 L 180 270" fill="none" stroke="rgb(0, 0, 0)" stroke-miterlimit="10" pointer-events="none"/><g fill="rgb(0, 0, 0)" font-family="Helvetica" font-weight="bold" pointer-events="none" text-anchor="middle" font-size="12px"><text x="159.5" y="19.5">Properties</text></g><path d="M 0 30 M 320 30 M 320 60 L 0 60" fill="none" stroke="rgb(0, 0, 0)" stroke-linecap="square" stroke-miterlimit="10" pointer-events="none"/><path d="M 0 30 M 40 30 M 40 60 M 0 60" fill="none" stroke="rgb(0, 0, 0)" stroke-linecap="square" stroke-miterlimit="10" pointer-events="none"/><g fill="rgb(0, 0, 0)" font-family="Helvetica" font-weight="bold" pointer-events="none" clip-path="url(#mx-clip-0-30-40-30-0)" text-anchor="middle" font-size="12px"><text x="19.5" y="49.5">Key</text></g><path d="M 40 30 M 180 30 M 180 60 M 40 60" fill="none" stroke="rgb(0, 0, 0)" stroke-linecap="square" stroke-miterlimit="10" pointer-events="none"/><g fill="rgb(0, 0, 0)" font-family="Helvetica" font-weight="bold" text-decoration="underline" pointer-events="none" clip-path="url(#mx-clip-46-30-134-30-0)" font-size="12px"><text x="47.5" y="49.5">Name</text></g><path d="M 180 30 M 320 30 M 320 60 M 180 60" fill="none" stroke="rgb(0, 0, 0)" stroke-linecap="square" stroke-miterlimit="10" pointer-events="none"/><g fill="rgb(0, 0, 0)" font-family="Helvetica" font-weight="bold" text-decoration="underline" pointer-events="none" clip-path="url(#mx-clip-186-30-134-30-0)" font-size="12px"><text x="187.5" y="49.5">Type</text></g><path d="M 0 60 M 40 60 M 40 90 M 0 90" fill="none" stroke="rgb(0, 0, 0)" stroke-linecap="square" stroke-miterlimit="10" pointer-events="none"/><path d="M 40 60 M 180 60 M 180 90 M 40 90" fill="none" stroke="rgb(0, 0, 0)" stroke-linecap="square" stroke-miterlimit="10" pointer-events="none"/><g fill="rgb(0, 0, 0)" font-family="Helvetica" pointer-events="none" clip-path="url(#mx-clip-46-60-134-30-0)" font-size="12px"><text x="47.5" y="79.5">Name</text></g><path d="M 180 60 M 320 60 M 320 90 M 180 90" fill="none" stroke="rgb(0, 0, 0)" stroke-linecap="square" stroke-miterlimit="10" pointer-events="none"/><g fill="rgb(0, 0, 0)" font-family="Helvetica" pointer-events="none" clip-path="url(#mx-clip-186-60-134-30-0)" font-size="12px"><text x="187.5" y="79.5">Char</text></g><path d="M 0 90 M 40 90 M 40 120 M 0 120" fill="none" stroke="rgb(0, 0, 0)" stroke-linecap="square" stroke-miterlimit="10" pointer-events="none"/><path d="M 40 90 M 180 90 M 180 120 M 40 120" fill="none" stroke="rgb(0, 0, 0)" stroke-linecap="square" stroke-miterlimit="10" pointer-events="none"/><g fill="rgb(0, 0, 0)" font-family="Helvetica" pointer-events="none" clip-path="url(#mx-clip-46-90-134-30-0)" font-size="12px"><text x="47.5" y="109.5">Price</text></g><path d="M 180 90 M 320 90 M 320 120 M 180 120" fill="none" stroke="rgb(0, 0, 0)" stroke-linecap="square" stroke-miterlimit="10" pointer-events="none"/><g fill="rgb(0, 0, 0)" font-family="Helvetica" pointer-events="none" clip-path="url(#mx-clip-186-90-134-30-0)" font-size="12px"><text x="187.5" y="109.5">Money</text></g><path d="M 0 120 M 40 120 M 40 150 M 0 150" fill="none" stroke="rgb(0, 0, 0)" stroke-linecap="square" stroke-miterlimit="10" pointer-events="none"/><path d="M 40 120 M 180 120 M 180 150 M 40 150" fill="none" stroke="rgb(0, 0, 0)" stroke-linecap="square" stroke-miterlimit="10" pointer-events="none"/><g fill="rgb(0, 0, 0)" font-family="Helvetica" pointer-events="none" clip-path="url(#mx-clip-46-120-134-30-0)" font-size="12px"><text x="47.5" y="139.5">Description</text></g><path d="M 180 120 M 320 120 M 320 150 M 180 150" fill="none" stroke="rgb(0, 0, 0)" stroke-linecap="square" stroke-miterlimit="10" pointer-events="none"/><g fill="rgb(0, 0, 0)" font-family="Helvetica" pointer-events="none" clip-path="url(#mx-clip-186-120-134-30-0)" font-size="12px"><text x="187.5" y="139.5">Text</text></g><path d="M 0 150 M 40 150 M 40 180 M 0 180" fill="none" stroke="rgb(0, 0, 0)" stroke-linecap="square" stroke-miterlimit="10" pointer-events="none"/><path d="M 40 150 M 180 150 M 180 180 M 40 180" fill="none" stroke="rgb(0, 0, 0)" stroke-linecap="square" stroke-miterlimit="10" pointer-events="none"/><g fill="rgb(0, 0, 0)" font-family="Helvetica" pointer-events="none" clip-path="url(#mx-clip-46-150-134-30-0)" font-size="12px"><text x="47.5" y="169.5">Address</text></g><path d="M 180 150 M 320 150 M 320 180 M 180 180" fill="none" stroke="rgb(0, 0, 0)" stroke-linecap="square" stroke-miterlimit="10" pointer-events="none"/><g fill="rgb(0, 0, 0)" font-family="Helvetica" pointer-events="none" clip-path="url(#mx-clip-186-150-134-30-0)" font-size="12px"><text x="187.5" y="169.5">Char[200]</text></g><path d="M 0 180 M 40 180 M 40 210 M 0 210" fill="none" stroke="rgb(0, 0, 0)" stroke-linecap="square" stroke-miterlimit="10" pointer-events="none"/><path d="M 40 180 M 180 180 M 180 210 M 40 210" fill="none" stroke="rgb(0, 0, 0)" stroke-linecap="square" stroke-miterlimit="10" pointer-events="none"/><g fill="rgb(0, 0, 0)" font-family="Helvetica" pointer-events="none" clip-path="url(#mx-clip-46-180-134-30-0)" font-size="12px"><text x="47.5" y="199.5">Date Added</text></g><path d="M 180 180 M 320 180 M 320 210 M 180 210" fill="none" stroke="rgb(0, 0, 0)" stroke-linecap="square" stroke-miterlimit="10" pointer-events="none"/><g fill="rgb(0, 0, 0)" font-family="Helvetica" pointer-events="none" clip-path="url(#mx-clip-186-180-134-30-0)" font-size="12px"><text x="187.5" y="199.5">DateTime</text></g><path d="M 0 210 M 40 210 M 40 240 M 0 240" fill="none" stroke="rgb(0, 0, 0)" stroke-linecap="square" stroke-miterlimit="10" pointer-events="none"/><path d="M 40 210 M 180 210 M 180 240 M 40 240" fill="none" stroke="rgb(0, 0, 0)" stroke-linecap="square" stroke-miterlimit="10" pointer-events="none"/><g fill="rgb(0, 0, 0)" font-family="Helvetica" pointer-events="none" clip-path="url(#mx-clip-46-210-134-30-0)" font-size="12px"><text x="47.5" y="229.5">Main Image</text></g><path d="M 180 210 M 320 210 M 320 240 M 180 240" fill="none" stroke="rgb(0, 0, 0)" stroke-linecap="square" stroke-miterlimit="10" pointer-events="none"/><g fill="rgb(0, 0, 0)" font-family="Helvetica" pointer-events="none" clip-path="url(#mx-clip-186-210-134-30-0)" font-size="12px"><text x="187.5" y="229.5">CloudinaryField</text></g><path d="M 0 240 M 40 240 M 40 270 M 0 270" fill="none" stroke="rgb(0, 0, 0)" stroke-linecap="square" stroke-miterlimit="10" pointer-events="none"/><path d="M 40 240 M 180 240 M 180 270 M 40 270" fill="none" stroke="rgb(0, 0, 0)" stroke-linecap="square" stroke-miterlimit="10" pointer-events="none"/><g fill="rgb(0, 0, 0)" font-family="Helvetica" pointer-events="none" clip-path="url(#mx-clip-46-240-134-30-0)" font-size="12px"><text x="47.5" y="259.5">Let Agreed</text></g><path d="M 180 240 M 320 240 M 320 270 M 180 270" fill="none" stroke="rgb(0, 0, 0)" stroke-linecap="square" stroke-miterlimit="10" pointer-events="none"/><g fill="rgb(0, 0, 0)" font-family="Helvetica" pointer-events="none" clip-path="url(#mx-clip-186-240-134-30-0)" font-size="12px"><text x="187.5" y="259.5">Bool</text></g><path d="M 400 30 L 400 0 L 720 0 L 720 30" fill="rgb(255, 255, 255)" stroke="rgb(0, 0, 0)" stroke-miterlimit="10" pointer-events="none"/><path d="M 400 30 L 400 210 L 720 210 L 720 30" fill="none" stroke="rgb(0, 0, 0)" stroke-miterlimit="10" pointer-events="none"/><path d="M 400 30 L 720 30" fill="none" stroke="rgb(0, 0, 0)" stroke-miterlimit="10" pointer-events="none"/><path d="M 440 30 L 440 60 L 440 90 L 440 120 L 440 150 L 440 180 L 440 210" fill="none" stroke="rgb(0, 0, 0)" stroke-miterlimit="10" pointer-events="none"/><path d="M 580 30 L 580 60 L 580 90 L 580 120 L 580 150 L 580 180 L 580 210" fill="none" stroke="rgb(0, 0, 0)" stroke-miterlimit="10" pointer-events="none"/><g fill="rgb(0, 0, 0)" font-family="Helvetica" font-weight="bold" pointer-events="none" text-anchor="middle" font-size="12px"><text x="559.5" y="19.5">ViewingRequests</text></g><path d="M 400 30 M 720 30 M 720 60 L 400 60" fill="none" stroke="rgb(0, 0, 0)" stroke-linecap="square" stroke-miterlimit="10" pointer-events="none"/><path d="M 400 30 M 440 30 M 440 60 M 400 60" fill="none" stroke="rgb(0, 0, 0)" stroke-linecap="square" stroke-miterlimit="10" pointer-events="none"/><g fill="rgb(0, 0, 0)" font-family="Helvetica" font-weight="bold" pointer-events="none" clip-path="url(#mx-clip-400-30-40-30-0)" text-anchor="middle" font-size="12px"><text x="419.5" y="49.5">Key</text></g><path d="M 440 30 M 580 30 M 580 60 M 440 60" fill="none" stroke="rgb(0, 0, 0)" stroke-linecap="square" stroke-miterlimit="10" pointer-events="none"/><g fill="rgb(0, 0, 0)" font-family="Helvetica" font-weight="bold" text-decoration="underline" pointer-events="none" clip-path="url(#mx-clip-446-30-134-30-0)" font-size="12px"><text x="447.5" y="49.5">Name</text></g><path d="M 580 30 M 720 30 M 720 60 M 580 60" fill="none" stroke="rgb(0, 0, 0)" stroke-linecap="square" stroke-miterlimit="10" pointer-events="none"/><g fill="rgb(0, 0, 0)" font-family="Helvetica" font-weight="bold" text-decoration="underline" pointer-events="none" clip-path="url(#mx-clip-586-30-134-30-0)" font-size="12px"><text x="587.5" y="49.5">Type</text></g><path d="M 400 60 M 440 60 M 440 90 M 400 90" fill="none" stroke="rgb(0, 0, 0)" stroke-linecap="square" stroke-miterlimit="10" pointer-events="none"/><g fill="rgb(0, 0, 0)" font-family="Helvetica" pointer-events="none" clip-path="url(#mx-clip-400-60-40-30-0)" text-anchor="middle" font-size="12px"><text x="419.5" y="79.5">FK</text></g><path d="M 440 60 M 580 60 M 580 90 M 440 90" fill="none" stroke="rgb(0, 0, 0)" stroke-linecap="square" stroke-miterlimit="10" pointer-events="none"/><g fill="rgb(0, 0, 0)" font-family="Helvetica" pointer-events="none" clip-path="url(#mx-clip-446-60-134-30-0)" font-size="12px"><text x="447.5" y="79.5">Property</text></g><path d="M 580 60 M 720 60 M 720 90 M 580 90" fill="none" stroke="rgb(0, 0, 0)" stroke-linecap="square" stroke-miterlimit="10" pointer-events="none"/><g fill="rgb(0, 0, 0)" font-family="Helvetica" pointer-events="none" clip-path="url(#mx-clip-586-60-134-30-0)" font-size="12px"><text x="587.5" y="79.5">Properties Model</text></g><path d="M 400 90 M 440 90 M 440 120 M 400 120" fill="none" stroke="rgb(0, 0, 0)" stroke-linecap="square" stroke-miterlimit="10" pointer-events="none"/><path d="M 440 90 M 580 90 M 580 120 M 440 120" fill="none" stroke="rgb(0, 0, 0)" stroke-linecap="square" stroke-miterlimit="10" pointer-events="none"/><g fill="rgb(0, 0, 0)" font-family="Helvetica" pointer-events="none" clip-path="url(#mx-clip-446-90-134-30-0)" font-size="12px"><text x="447.5" y="109.5">Request Date</text></g><path d="M 580 90 M 720 90 M 720 120 M 580 120" fill="none" stroke="rgb(0, 0, 0)" stroke-linecap="square" stroke-miterlimit="10" pointer-events="none"/><g fill="rgb(0, 0, 0)" font-family="Helvetica" pointer-events="none" clip-path="url(#mx-clip-586-90-134-30-0)" font-size="12px"><text x="587.5" y="109.5">DateTime</text></g><path d="M 400 120 M 440 120 M 440 150 M 400 150" fill="none" stroke="rgb(0, 0, 0)" stroke-linecap="square" stroke-miterlimit="10" pointer-events="none"/><path d="M 440 120 M 580 120 M 580 150 M 440 150" fill="none" stroke="rgb(0, 0, 0)" stroke-linecap="square" stroke-miterlimit="10" pointer-events="none"/><g fill="rgb(0, 0, 0)" font-family="Helvetica" pointer-events="none" clip-path="url(#mx-clip-446-120-134-30-0)" font-size="12px"><text x="447.5" y="139.5">Aranged Date</text></g><path d="M 580 120 M 720 120 M 720 150 M 580 150" fill="none" stroke="rgb(0, 0, 0)" stroke-linecap="square" stroke-miterlimit="10" pointer-events="none"/><g fill="rgb(0, 0, 0)" font-family="Helvetica" pointer-events="none" clip-path="url(#mx-clip-586-120-134-30-0)" font-size="12px"><text x="587.5" y="139.5">DateTime</text></g><path d="M 400 150 M 440 150 M 440 180 M 400 180" fill="none" stroke="rgb(0, 0, 0)" stroke-linecap="square" stroke-miterlimit="10" pointer-events="none"/><path d="M 440 150 M 580 150 M 580 180 M 440 180" fill="none" stroke="rgb(0, 0, 0)" stroke-linecap="square" stroke-miterlimit="10" pointer-events="none"/><g fill="rgb(0, 0, 0)" font-family="Helvetica" pointer-events="none" clip-path="url(#mx-clip-446-150-134-30-0)" font-size="12px"><text x="447.5" y="169.5">Message</text></g><path d="M 580 150 M 720 150 M 720 180 M 580 180" fill="none" stroke="rgb(0, 0, 0)" stroke-linecap="square" stroke-miterlimit="10" pointer-events="none"/><g fill="rgb(0, 0, 0)" font-family="Helvetica" pointer-events="none" clip-path="url(#mx-clip-586-150-134-30-0)" font-size="12px"><text x="587.5" y="169.5">Text</text></g><path d="M 400 180 M 440 180 M 440 210 M 400 210" fill="none" stroke="rgb(0, 0, 0)" stroke-linecap="square" stroke-miterlimit="10" pointer-events="none"/><g fill="#999999" font-family="Helvetica" pointer-events="none" clip-path="url(#mx-clip-400-180-40-30-0)" text-anchor="middle" font-size="12px"><text x="419.5" y="199.5">FK</text></g><path d="M 440 180 M 580 180 M 580 210 M 440 210" fill="none" stroke="rgb(0, 0, 0)" stroke-linecap="square" stroke-miterlimit="10" pointer-events="none"/><g fill="#999999" font-family="Helvetica" pointer-events="none" clip-path="url(#mx-clip-446-180-134-30-0)" font-size="12px"><text x="447.5" y="199.5">Associated User</text></g><path d="M 580 180 M 720 180 M 720 210 M 580 210" fill="none" stroke="rgb(0, 0, 0)" stroke-linecap="square" stroke-miterlimit="10" pointer-events="none"/><g fill="#999999" font-family="Helvetica" pointer-events="none" clip-path="url(#mx-clip-586-180-134-30-0)" font-size="12px"><text x="587.5" y="199.5">Users Model</text></g><path d="M 400 75 L 360 75 L 360 15.1 L 327.65 15.12" fill="none" stroke="rgb(0, 0, 0)" stroke-miterlimit="10" pointer-events="none"/><path d="M 322.4 15.12 L 329.4 11.62 L 327.65 15.12 L 329.4 18.62 Z" fill="rgb(0, 0, 0)" stroke="rgb(0, 0, 0)" stroke-miterlimit="10" pointer-events="none"/><path d="M 400 300 L 400 270 L 720 270 L 720 300" fill="rgb(255, 255, 255)" stroke="rgb(0, 0, 0)" stroke-miterlimit="10" pointer-events="none"/><path d="M 400 300 L 400 390 L 720 390 L 720 300" fill="none" stroke="rgb(0, 0, 0)" stroke-miterlimit="10" pointer-events="none"/><path d="M 400 300 L 720 300" fill="none" stroke="rgb(0, 0, 0)" stroke-miterlimit="10" pointer-events="none"/><path d="M 440 300 L 440 330 L 440 360 L 440 390" fill="none" stroke="rgb(0, 0, 0)" stroke-miterlimit="10" pointer-events="none"/><path d="M 580 300 L 580 330 L 580 360 L 580 390" fill="none" stroke="rgb(0, 0, 0)" stroke-miterlimit="10" pointer-events="none"/><g fill="rgb(0, 0, 0)" font-family="Helvetica" font-weight="bold" pointer-events="none" text-anchor="middle" font-size="12px"><text x="559.5" y="289.5">UserProfile</text></g><path d="M 400 300 M 720 300 M 720 330 L 400 330" fill="none" stroke="rgb(0, 0, 0)" stroke-linecap="square" stroke-miterlimit="10" pointer-events="none"/><path d="M 400 300 M 440 300 M 440 330 M 400 330" fill="none" stroke="rgb(0, 0, 0)" stroke-linecap="square" stroke-miterlimit="10" pointer-events="none"/><g fill="rgb(0, 0, 0)" font-family="Helvetica" font-weight="bold" pointer-events="none" clip-path="url(#mx-clip-400-300-40-30-0)" text-anchor="middle" font-size="12px"><text x="419.5" y="319.5">Key</text></g><path d="M 440 300 M 580 300 M 580 330 M 440 330" fill="none" stroke="rgb(0, 0, 0)" stroke-linecap="square" stroke-miterlimit="10" pointer-events="none"/><g fill="rgb(0, 0, 0)" font-family="Helvetica" font-weight="bold" text-decoration="underline" pointer-events="none" clip-path="url(#mx-clip-446-300-134-30-0)" font-size="12px"><text x="447.5" y="319.5">Name</text></g><path d="M 580 300 M 720 300 M 720 330 M 580 330" fill="none" stroke="rgb(0, 0, 0)" stroke-linecap="square" stroke-miterlimit="10" pointer-events="none"/><g fill="rgb(0, 0, 0)" font-family="Helvetica" font-weight="bold" text-decoration="underline" pointer-events="none" clip-path="url(#mx-clip-586-300-134-30-0)" font-size="12px"><text x="587.5" y="319.5">Type</text></g><path d="M 400 330 M 440 330 M 440 360 M 400 360" fill="none" stroke="rgb(0, 0, 0)" stroke-linecap="square" stroke-miterlimit="10" pointer-events="none"/><g fill="rgb(0, 0, 0)" font-family="Helvetica" pointer-events="none" clip-path="url(#mx-clip-400-330-40-30-0)" text-anchor="middle" font-size="12px"><text x="419.5" y="349.5">121</text></g><path d="M 440 330 M 580 330 M 580 360 M 440 360" fill="none" stroke="rgb(0, 0, 0)" stroke-linecap="square" stroke-miterlimit="10" pointer-events="none"/><g fill="rgb(0, 0, 0)" font-family="Helvetica" pointer-events="none" clip-path="url(#mx-clip-446-330-134-30-0)" font-size="12px"><text x="447.5" y="349.5">User</text></g><path d="M 580 330 M 720 330 M 720 360 M 580 360" fill="none" stroke="rgb(0, 0, 0)" stroke-linecap="square" stroke-miterlimit="10" pointer-events="none"/><g fill="rgb(0, 0, 0)" font-family="Helvetica" pointer-events="none" clip-path="url(#mx-clip-586-330-134-30-0)" font-size="12px"><text x="587.5" y="349.5">User model</text></g><path d="M 400 360 M 440 360 M 440 390 M 400 390" fill="none" stroke="rgb(0, 0, 0)" stroke-linecap="square" stroke-miterlimit="10" pointer-events="none"/><path d="M 440 360 M 580 360 M 580 390 M 440 390" fill="none" stroke="rgb(0, 0, 0)" stroke-linecap="square" stroke-miterlimit="10" pointer-events="none"/><g fill="rgb(0, 0, 0)" font-family="Helvetica" pointer-events="none" clip-path="url(#mx-clip-446-360-134-30-0)" font-size="12px"><text x="447.5" y="379.5">Phone</text></g><path d="M 580 360 M 720 360 M 720 390 M 580 390" fill="none" stroke="rgb(0, 0, 0)" stroke-linecap="square" stroke-miterlimit="10" pointer-events="none"/><g fill="rgb(0, 0, 0)" font-family="Helvetica" pointer-events="none" clip-path="url(#mx-clip-586-360-134-30-0)" font-size="12px"><text x="587.5" y="379.5">Char[14]</text></g><path d="M 400 490 L 400 460 L 720 460 L 720 490" fill="rgb(255, 255, 255)" stroke="rgb(0, 0, 0)" stroke-miterlimit="10" pointer-events="none"/><path d="M 400 490 L 400 670 L 720 670 L 720 490" fill="none" stroke="rgb(0, 0, 0)" stroke-miterlimit="10" pointer-events="none"/><path d="M 400 490 L 720 490" fill="none" stroke="rgb(0, 0, 0)" stroke-miterlimit="10" pointer-events="none"/><path d="M 440 490 L 440 520 L 440 550 L 440 580 L 440 610 L 440 640 L 440 670" fill="none" stroke="rgb(0, 0, 0)" stroke-miterlimit="10" pointer-events="none"/><path d="M 580 490 L 580 520 L 580 550 L 580 580 L 580 610 L 580 640 L 580 670" fill="none" stroke="rgb(0, 0, 0)" stroke-miterlimit="10" pointer-events="none"/><g fill="rgb(0, 0, 0)" font-family="Helvetica" font-weight="bold" pointer-events="none" text-anchor="middle" font-size="12px"><text x="559.5" y="479.5">django.User</text></g><path d="M 400 490 M 720 490 M 720 520 L 400 520" fill="none" stroke="rgb(0, 0, 0)" stroke-linecap="square" stroke-miterlimit="10" pointer-events="none"/><path d="M 400 490 M 440 490 M 440 520 M 400 520" fill="none" stroke="rgb(0, 0, 0)" stroke-linecap="square" stroke-miterlimit="10" pointer-events="none"/><g fill="rgb(0, 0, 0)" font-family="Helvetica" font-weight="bold" pointer-events="none" clip-path="url(#mx-clip-400-490-40-30-0)" text-anchor="middle" font-size="12px"><text x="419.5" y="509.5">Key</text></g><path d="M 440 490 M 580 490 M 580 520 M 440 520" fill="none" stroke="rgb(0, 0, 0)" stroke-linecap="square" stroke-miterlimit="10" pointer-events="none"/><g fill="rgb(0, 0, 0)" font-family="Helvetica" font-weight="bold" text-decoration="underline" pointer-events="none" clip-path="url(#mx-clip-446-490-134-30-0)" font-size="12px"><text x="447.5" y="509.5">Name</text></g><path d="M 580 490 M 720 490 M 720 520 M 580 520" fill="none" stroke="rgb(0, 0, 0)" stroke-linecap="square" stroke-miterlimit="10" pointer-events="none"/><g fill="rgb(0, 0, 0)" font-family="Helvetica" font-weight="bold" text-decoration="underline" pointer-events="none" clip-path="url(#mx-clip-586-490-134-30-0)" font-size="12px"><text x="587.5" y="509.5">Type</text></g><path d="M 400 520 M 440 520 M 440 550 M 400 550" fill="none" stroke="rgb(0, 0, 0)" stroke-linecap="square" stroke-miterlimit="10" pointer-events="none"/><path d="M 440 520 M 580 520 M 580 550 M 440 550" fill="none" stroke="rgb(0, 0, 0)" stroke-linecap="square" stroke-miterlimit="10" pointer-events="none"/><g fill="rgb(0, 0, 0)" font-family="Helvetica" pointer-events="none" clip-path="url(#mx-clip-446-520-134-30-0)" font-size="12px"><text x="447.5" y="539.5">Username</text></g><path d="M 580 520 M 720 520 M 720 550 M 580 550" fill="none" stroke="rgb(0, 0, 0)" stroke-linecap="square" stroke-miterlimit="10" pointer-events="none"/><path d="M 400 550 M 440 550 M 440 580 M 400 580" fill="none" stroke="rgb(0, 0, 0)" stroke-linecap="square" stroke-miterlimit="10" pointer-events="none"/><path d="M 440 550 M 580 550 M 580 580 M 440 580" fill="none" stroke="rgb(0, 0, 0)" stroke-linecap="square" stroke-miterlimit="10" pointer-events="none"/><g fill="rgb(0, 0, 0)" font-family="Helvetica" pointer-events="none" clip-path="url(#mx-clip-446-550-134-30-0)" font-size="12px"><text x="447.5" y="569.5">Password</text></g><path d="M 580 550 M 720 550 M 720 580 M 580 580" fill="none" stroke="rgb(0, 0, 0)" stroke-linecap="square" stroke-miterlimit="10" pointer-events="none"/><path d="M 400 580 M 440 580 M 440 610 M 400 610" fill="none" stroke="rgb(0, 0, 0)" stroke-linecap="square" stroke-miterlimit="10" pointer-events="none"/><path d="M 440 580 M 580 580 M 580 610 M 440 610" fill="none" stroke="rgb(0, 0, 0)" stroke-linecap="square" stroke-miterlimit="10" pointer-events="none"/><g fill="rgb(0, 0, 0)" font-family="Helvetica" pointer-events="none" clip-path="url(#mx-clip-446-580-134-30-0)" font-size="12px"><text x="447.5" y="599.5">Email</text></g><path d="M 580 580 M 720 580 M 720 610 M 580 610" fill="none" stroke="rgb(0, 0, 0)" stroke-linecap="square" stroke-miterlimit="10" pointer-events="none"/><path d="M 400 610 M 440 610 M 440 640 M 400 640" fill="none" stroke="rgb(0, 0, 0)" stroke-linecap="square" stroke-miterlimit="10" pointer-events="none"/><path d="M 440 610 M 580 610 M 580 640 M 440 640" fill="none" stroke="rgb(0, 0, 0)" stroke-linecap="square" stroke-miterlimit="10" pointer-events="none"/><g fill="rgb(0, 0, 0)" font-family="Helvetica" pointer-events="none" clip-path="url(#mx-clip-446-610-134-30-0)" font-size="12px"><text x="447.5" y="629.5">First Name</text></g><path d="M 580 610 M 720 610 M 720 640 M 580 640" fill="none" stroke="rgb(0, 0, 0)" stroke-linecap="square" stroke-miterlimit="10" pointer-events="none"/><path d="M 400 640 M 440 640 M 440 670 M 400 670" fill="none" stroke="rgb(0, 0, 0)" stroke-linecap="square" stroke-miterlimit="10" pointer-events="none"/><path d="M 440 640 M 580 640 M 580 670 M 440 670" fill="none" stroke="rgb(0, 0, 0)" stroke-linecap="square" stroke-miterlimit="10" pointer-events="none"/><g fill="rgb(0, 0, 0)" font-family="Helvetica" pointer-events="none" clip-path="url(#mx-clip-446-640-134-30-0)" font-size="12px"><text x="447.5" y="659.5">Last Name</text></g><path d="M 580 640 M 720 640 M 720 670 M 580 670" fill="none" stroke="rgb(0, 0, 0)" stroke-linecap="square" stroke-miterlimit="10" pointer-events="none"/><path d="M 400 345 L 380 345 L 380 410 L 560 410 L 560 453.63" fill="none" stroke="rgb(0, 0, 0)" stroke-miterlimit="10" pointer-events="none"/><path d="M 560 458.88 L 556.5 451.88 L 560 453.63 L 563.5 451.88 Z" fill="rgb(0, 0, 0)" stroke="rgb(0, 0, 0)" stroke-miterlimit="10" pointer-events="none"/><path d="M 400 195 L 380 195 L 380 240 L 560 240 L 560 263.63" fill="none" stroke="rgb(0, 0, 0)" stroke-miterlimit="10" pointer-events="none"/><path d="M 560 268.88 L 556.5 261.88 L 560 263.63 L 563.5 261.88 Z" fill="rgb(0, 0, 0)" stroke="rgb(0, 0, 0)" stroke-miterlimit="10" pointer-events="none"/></g></svg>